<svg width="60" height="60" viewBox="0 0 60 60" fill="none" xmlns="http://www.w3.org/2000/svg">
<path d="M27.5 5H22.5C10 5 5 10 5 22.5V37.5C5 50 10 55 22.5 55H37.5C50 55 55 50 55 37.5V32.5" stroke="#2F80ED" stroke-width="3" stroke-linecap="round" stroke-linejoin="round"/>
<path d="M40.1002 7.55014L20.4002 27.2501C19.6502 28.0001 18.9002 29.4751 18.7502 30.5501L17.6752 38.0751C17.2752 40.8001 19.2002 42.7001 21.9252 42.3251L29.4502 41.2501C30.5002 41.1001 31.9752 40.3501 32.7502 39.6001L52.4502 19.9001C55.8502 16.5001 57.4502 12.5501 52.4502 7.55014C47.4502 2.55014 43.5002 4.15014 40.1002 7.55014Z" stroke="#2F80ED" stroke-width="3" stroke-miterlimit="10" stroke-linecap="round" stroke-linejoin="round"/>
<path d="M37.2749 10.375C38.9499 16.35 43.6249 21.025 49.6249 22.725" stroke="#2F80ED" stroke-width="3" stroke-miterlimit="10" stroke-linecap="round" stroke-linejoin="round"/>
</svg>
