<svg width="60" height="60" viewBox="0 0 60 60" fill="none" xmlns="http://www.w3.org/2000/svg">
<path d="M52.5 14.9502C44.175 14.1252 35.8 13.7002 27.45 13.7002C22.5 13.7002 17.55 13.9502 12.6 14.4502L7.5 14.9502" stroke="#EB5757" stroke-width="3" stroke-linecap="round" stroke-linejoin="round"/>
<path d="M21.25 12.425L21.8 9.15C22.2 6.775 22.5 5 26.725 5H33.275C37.5 5 37.825 6.875 38.2 9.175L38.75 12.425" stroke="#EB5757" stroke-width="3" stroke-linecap="round" stroke-linejoin="round"/>
<path d="M47.125 22.8501L45.5 48.0251C45.225 51.9501 45 55.0001 38.025 55.0001H21.975C15 55.0001 14.775 51.9501 14.5 48.0251L12.875 22.8501" stroke="#EB5757" stroke-width="3" stroke-linecap="round" stroke-linejoin="round"/>
<path d="M25.8252 41.25H34.1502" stroke="#EB5757" stroke-width="3" stroke-linecap="round" stroke-linejoin="round"/>
<path d="M23.75 31.25H36.25" stroke="#EB5757" stroke-width="3" stroke-linecap="round" stroke-linejoin="round"/>
</svg>
